<?xml version="1.0" encoding="iso-8859-1"?>
<!-- Generator: Adobe Illustrator 16.0.0, SVG Export Plug-In . SVG Version: 6.00 Build 0)  -->
<!DOCTYPE svg PUBLIC "-//W3C//DTD SVG 1.1//EN" "http://www.w3.org/Graphics/SVG/1.1/DTD/svg11.dtd">
<svg version="1.1" id="Capa_1" xmlns="http://www.w3.org/2000/svg" xmlns:xlink="http://www.w3.org/1999/xlink" x="0px" y="0px"
	 width="382.634px" height="382.635px" viewBox="0 0 382.634 382.635" style="enable-background:new 0 0 382.634 382.635;"
	 xml:space="preserve">
<g>
	<g>
		<polygon points="85.318,183.728 67.575,183.728 67.575,163.614 57.924,163.614 57.924,216.026 67.575,216.026 67.575,193.408 
			85.318,193.408 85.318,216.026 94.981,216.026 94.981,163.614 85.318,163.614 		"/>
		<path d="M131.046,207.596v-19.758c0-2.26-0.432-4.087-1.296-5.512c-0.846-1.413-1.956-2.522-3.322-3.287
			c-1.337-0.788-2.832-1.319-4.484-1.594c-1.623-0.263-3.252-0.391-4.852-0.391c-1.798,0-3.567,0.216-5.278,0.607
			c-1.717,0.42-3.287,1.127-4.671,2.096c-1.39,0.993-2.54,2.283-3.445,3.894c-0.899,1.629-1.413,3.661-1.542,6.113h8.729
			c0.164-2.055,0.753-3.526,1.746-4.414c0.992-0.887,2.341-1.313,4.028-1.313c0.776,0,1.495,0.058,2.189,0.192
			c0.666,0.117,1.255,0.356,1.77,0.736c0.502,0.374,0.905,0.875,1.231,1.536c0.31,0.666,0.467,1.553,0.467,2.703
			c0,1.074-0.28,1.874-0.864,2.44c-0.561,0.572-1.337,0.981-2.295,1.285c-0.958,0.292-2.055,0.502-3.287,0.654
			c-1.232,0.164-2.511,0.362-3.877,0.607c-1.349,0.246-2.68,0.572-3.97,0.993c-1.291,0.409-2.452,1.04-3.469,1.88
			c-1.027,0.806-1.851,1.938-2.464,3.316c-0.607,1.39-0.904,3.176-0.904,5.325c0,1.962,0.263,3.667,0.823,5.068
			c0.549,1.437,1.313,2.592,2.294,3.527c0.993,0.922,2.143,1.635,3.445,2.102c1.313,0.455,2.738,0.7,4.244,0.7
			c1.974,0,3.889-0.362,5.774-1.074c1.892-0.712,3.515-1.915,4.904-3.643c0.035,0.654,0.123,1.261,0.228,1.88
			c0.105,0.596,0.24,1.202,0.409,1.786h8.845c-0.42-0.771-0.707-1.962-0.87-3.526C131.116,210.958,131.046,209.312,131.046,207.596z
			 M122.317,201.36c0,0.584-0.064,1.354-0.146,2.335c-0.105,0.981-0.397,1.938-0.835,2.896c-0.443,0.958-1.15,1.787-2.096,2.452
			c-0.946,0.701-2.271,1.051-3.982,1.051c-0.706,0-1.372-0.093-2.031-0.222c-0.66-0.152-1.221-0.409-1.723-0.782
			c-0.49-0.362-0.882-0.853-1.174-1.448c-0.274-0.63-0.426-1.413-0.426-2.394c0-0.923,0.151-1.74,0.426-2.394
			c0.292-0.654,0.684-1.191,1.139-1.611c0.479-0.42,1.016-0.748,1.629-0.993c0.607-0.245,1.267-0.444,1.968-0.595
			c0.66-0.164,1.331-0.269,2.049-0.351c0.718-0.117,1.396-0.233,2.032-0.374c0.643-0.14,1.232-0.327,1.769-0.561
			c0.549-0.21,1.016-0.525,1.39-0.911v3.9H122.317z"/>
		<rect x="138.041" y="163.614" width="8.729" height="8.583"/>
		<rect x="138.041" y="178.082" width="8.729" height="37.968"/>
		<path d="M166.93,187.698c1.109-0.648,2.452-0.958,4.052-0.958c0.537,0,1.086,0.035,1.664,0.105
			c0.583,0.082,1.074,0.169,1.482,0.251v-9.686c-0.613-0.251-1.255-0.368-1.903-0.368c-1.074,0-2.131,0.192-3.17,0.583
			c-1.04,0.386-2.021,0.958-2.914,1.664c-0.911,0.701-1.71,1.565-2.406,2.569c-0.694,1.004-1.243,2.09-1.664,3.264h-0.116v-7.053
			h-8.303v37.957h8.729v-17.107c0-1.67,0.135-3.234,0.432-4.729c0.286-1.495,0.765-2.779,1.436-3.888
			C164.921,189.192,165.815,188.328,166.93,187.698z"/>
		<path d="M219.401,196.397c-0.946-0.806-2.032-1.459-3.234-1.927c-1.203-0.525-2.452-0.911-3.726-1.261
			c-1.226-0.339-2.429-0.654-3.62-0.958c-1.191-0.28-2.242-0.631-3.165-0.981c-0.922-0.374-1.67-0.853-2.254-1.437
			c-0.56-0.595-0.852-1.337-0.852-2.259c0-0.788,0.164-1.413,0.491-1.892c0.338-0.461,0.735-0.8,1.19-1.063
			c0.479-0.251,1.005-0.391,1.577-0.479c0.584-0.07,1.098-0.105,1.588-0.105c1.564,0,2.919,0.356,4.063,1.062
			s1.798,2.079,1.915,4.093h8.291c-0.164-2.359-0.666-4.309-1.507-5.85c-0.829-1.542-1.903-2.773-3.164-3.708
			c-1.262-0.946-2.709-1.6-4.321-1.985c-1.623-0.391-3.293-0.583-5.009-0.583c-1.74,0-3.398,0.181-5.045,0.549
			c-1.623,0.356-3.118,1.004-4.425,1.915c-1.308,0.893-2.359,2.148-3.153,3.742c-0.806,1.577-1.191,3.585-1.191,5.979
			c0,1.669,0.269,3.071,0.841,4.239c0.572,1.144,1.331,2.102,2.266,2.849c0.958,0.771,2.008,1.366,3.234,1.845
			c1.226,0.444,2.452,0.864,3.725,1.203c1.565,0.397,2.943,0.771,4.18,1.156c1.238,0.362,2.266,0.748,3.106,1.214
			c0.841,0.444,1.483,0.934,1.927,1.495c0.467,0.561,0.688,1.238,0.688,2.032c0,0.923-0.198,1.705-0.561,2.289
			c-0.373,0.642-0.84,1.121-1.377,1.495c-0.561,0.374-1.179,0.642-1.845,0.794c-0.677,0.164-1.331,0.257-1.95,0.257
			c-0.853,0-1.693-0.14-2.487-0.362c-0.794-0.245-1.506-0.631-2.125-1.133c-0.607-0.537-1.121-1.214-1.495-2.008
			c-0.385-0.806-0.583-1.763-0.583-2.896h-8.291c0.082,2.511,0.561,4.601,1.448,6.306c0.887,1.716,1.997,3.106,3.363,4.157
			c1.377,1.051,2.966,1.798,4.706,2.242c1.764,0.443,3.573,0.677,5.418,0.677c1.81,0,3.573-0.233,5.313-0.677
			c1.74-0.444,3.293-1.168,4.647-2.195c1.354-1.039,2.452-2.382,3.293-4.087c0.829-1.682,1.262-3.76,1.262-6.282
			c0-1.751-0.305-3.223-0.865-4.438C221.106,198.207,220.335,197.203,219.401,196.397z"/>
		<path d="M245.09,185.041v-6.959h-6.399v-11.397h-8.723v11.385h-5.266v6.959h5.266v22.403c0,1.915,0.269,3.457,0.807,4.624
			c0.514,1.203,1.249,2.102,2.184,2.756c0.898,0.677,1.984,1.098,3.176,1.33c1.203,0.211,2.487,0.328,3.842,0.328
			c0.864,0,1.752-0.023,2.639-0.094c0.899-0.035,1.729-0.152,2.464-0.281v-8.15c-0.829,0.187-1.739,0.28-2.697,0.28
			c-1.483,0-2.476-0.28-2.966-0.876c-0.49-0.583-0.725-1.763-0.725-3.538v-18.794h6.399V185.041z"/>
		<path d="M262.208,204.069h-0.116l-7.182-25.999h-9.342l11.198,35.622c0.234,0.747,0.351,1.506,0.351,2.335
			c0,0.782-0.116,1.542-0.351,2.219c-0.256,0.677-0.63,1.261-1.144,1.728c-0.515,0.468-1.145,0.76-1.892,0.842
			c-0.841,0.035-1.717,0.023-2.569-0.082c-0.864-0.094-1.693-0.176-2.522-0.292v8.606c0.899,0.093,1.799,0.187,2.686,0.244
			c0.888,0.094,1.752,0.117,2.674,0.117c2.99,0,5.325-0.678,6.995-2.031c1.682-1.332,2.989-3.539,3.936-6.562l13.276-42.733h-9.038
			L262.208,204.069z"/>
		<rect x="281.394" y="163.614" width="8.724" height="52.436"/>
		<path d="M326.48,191.137c-0.561-2.703-1.495-5.08-2.791-7.199c-1.272-2.113-2.931-3.777-4.951-5.033
			c-1.996-1.255-4.355-1.862-7.053-1.862c-2.429,0-4.612,0.514-6.621,1.541c-1.985,1.028-3.701,2.429-5.138,4.21
			c-1.425,1.792-2.546,3.923-3.316,6.37c-0.782,2.458-1.168,5.085-1.168,7.923c0,2.943,0.386,5.628,1.145,8.081
			c0.759,2.429,1.845,4.566,3.223,6.329c1.39,1.751,3.106,3.118,5.092,4.086c2.031,0.981,4.262,1.472,6.772,1.472
			c3.597,0,6.656-0.98,9.201-2.989c2.546-2.032,4.426-5.278,5.676-9.773h-7.684c-0.304,1.179-1.086,2.277-2.359,3.351
			c-1.261,1.04-2.768,1.565-4.53,1.565c-2.452,0-4.332-0.748-5.663-2.312c-1.32-1.542-2.032-3.982-2.149-7.287h22.923
			C327.262,196.643,327.076,193.828,326.48,191.137z M304.188,192.976c0.035-0.735,0.176-1.564,0.409-2.493
			c0.222-0.923,0.607-1.792,1.156-2.645c0.549-0.823,1.296-1.53,2.207-2.09c0.934-0.566,2.078-0.853,3.479-0.853
			c2.125,0,3.713,0.683,4.765,2.055c1.039,1.378,1.751,3.387,2.172,6.025H304.188z"/>
		<path d="M157.483,264.253c-0.525-0.596-1.115-1.109-1.746-1.495c-0.625-0.42-1.255-0.747-1.903-1.004
			c-0.63-0.245-1.232-0.467-1.792-0.607c-0.561-0.151-1.027-0.257-1.378-0.326c-1.804-0.468-3.264-0.842-4.385-1.168
			c-1.127-0.304-1.997-0.607-2.633-0.888c-0.642-0.269-1.062-0.607-1.279-0.958c-0.216-0.326-0.309-0.793-0.309-1.377
			c0-0.561,0.128-1.074,0.403-1.495c0.28-0.421,0.613-0.771,1.033-1.052c0.415-0.268,0.882-0.443,1.384-0.56
			c0.525-0.117,1.027-0.163,1.542-0.163c0.753,0,1.483,0.058,2.154,0.209c0.683,0.129,1.267,0.363,1.781,0.689
			c0.502,0.315,0.935,0.76,1.244,1.32c0.298,0.571,0.479,1.283,0.537,2.16h6.16c0-1.67-0.31-3.096-0.958-4.263
			c-0.619-1.179-1.495-2.137-2.569-2.896c-1.074-0.76-2.318-1.285-3.708-1.646c-1.39-0.339-2.832-0.502-4.35-0.502
			c-1.296,0-2.586,0.186-3.889,0.514c-1.302,0.361-2.452,0.898-3.492,1.635c-1.016,0.747-1.856,1.635-2.475,2.732
			c-0.648,1.074-0.958,2.382-0.958,3.854c0,1.33,0.251,2.486,0.753,3.409c0.502,0.911,1.15,1.67,1.962,2.288
			c0.823,0.631,1.734,1.145,2.762,1.53c1.016,0.386,2.066,0.724,3.158,0.981c1.04,0.303,2.091,0.572,3.106,0.793
			c1.027,0.223,1.95,0.514,2.762,0.854c0.806,0.314,1.471,0.747,1.962,1.226c0.49,0.49,0.753,1.121,0.753,1.915
			c0,0.713-0.192,1.319-0.561,1.787c-0.374,0.467-0.847,0.828-1.425,1.098c-0.572,0.268-1.167,0.467-1.827,0.561
			c-0.648,0.104-1.244,0.14-1.804,0.14c-0.875,0-1.699-0.093-2.452-0.304c-0.777-0.188-1.459-0.49-2.032-0.91
			c-0.59-0.421-1.057-0.958-1.39-1.658c-0.356-0.666-0.525-1.495-0.525-2.453h-6.16c-0.023,1.764,0.297,3.305,0.993,4.602
			c0.694,1.308,1.605,2.382,2.738,3.211c1.138,0.841,2.452,1.471,3.946,1.856c1.495,0.421,3.048,0.619,4.642,0.619
			c1.973,0,3.708-0.245,5.202-0.712c1.506-0.491,2.761-1.145,3.766-1.939c1.016-0.84,1.769-1.81,2.282-2.931
			c0.514-1.132,0.777-2.358,0.777-3.702c0-1.086-0.169-2.031-0.502-2.849C158.44,265.549,158.008,264.836,157.483,264.253z"/>
		<polygon points="181.059,260.002 169.365,260.002 169.365,248.909 163.018,248.909 163.018,277.799 169.365,277.799 
			169.365,265.327 181.059,265.327 181.059,277.799 187.423,277.799 187.423,248.909 181.059,248.909 		"/>
		<path d="M216.388,252.623c-1.203-1.379-2.686-2.453-4.461-3.224c-1.74-0.782-3.736-1.19-5.979-1.19s-4.239,0.396-5.979,1.19
			c-1.764,0.759-3.246,1.833-4.461,3.224c-1.214,1.377-2.148,3-2.791,4.869c-0.642,1.856-0.981,3.865-0.981,5.979
			c0,2.09,0.339,4.04,0.981,5.873c0.642,1.846,1.576,3.434,2.791,4.765c1.215,1.354,2.686,2.417,4.461,3.199
			c1.74,0.782,3.748,1.191,5.979,1.191s4.239-0.397,5.979-1.191c1.775-0.771,3.246-1.833,4.461-3.199
			c1.238-1.331,2.16-2.919,2.803-4.765c0.653-1.833,0.969-3.783,0.969-5.873c0-2.113-0.315-4.122-0.969-5.979
			C218.548,255.623,217.615,254,216.388,252.623z M213.399,267.021c-0.292,1.144-0.759,2.184-1.366,3.095
			c-0.643,0.922-1.437,1.658-2.44,2.219c-0.993,0.537-2.219,0.828-3.644,0.828s-2.639-0.291-3.644-0.828
			c-1.004-0.561-1.798-1.285-2.429-2.219c-0.619-0.911-1.074-1.951-1.354-3.095c-0.28-1.156-0.432-2.324-0.432-3.55
			c0-1.25,0.151-2.487,0.432-3.679c0.28-1.202,0.736-2.253,1.354-3.188c0.607-0.935,1.425-1.693,2.429-2.23
			c1.005-0.561,2.219-0.829,3.644-0.829s2.651,0.269,3.644,0.829c0.992,0.537,1.798,1.284,2.44,2.23
			c0.607,0.935,1.074,1.985,1.366,3.188c0.269,1.191,0.42,2.429,0.42,3.679C213.819,264.696,213.667,265.864,213.399,267.021z"/>
		<path d="M245.23,251.781c-0.781-0.863-1.821-1.564-3.082-2.09c-1.273-0.525-2.826-0.782-4.624-0.782h-13.032v28.913h6.353v-10.358
			h6.68c1.798,0,3.351-0.269,4.624-0.794c1.261-0.525,2.289-1.227,3.082-2.078c0.795-0.854,1.379-1.857,1.74-2.955
			c0.362-1.109,0.549-2.266,0.549-3.444c0-1.167-0.187-2.3-0.549-3.421C246.609,253.639,246.025,252.657,245.23,251.781z
			 M240.91,260.399c-0.314,0.561-0.724,1.005-1.214,1.296c-0.537,0.315-1.133,0.525-1.798,0.643
			c-0.678,0.117-1.379,0.164-2.103,0.164h-4.951v-8.665h4.951c0.724,0,1.425,0.069,2.103,0.163c0.677,0.117,1.261,0.327,1.798,0.631
			c0.49,0.304,0.899,0.748,1.214,1.308c0.304,0.572,0.468,1.308,0.468,2.242C241.377,259.092,241.213,259.815,240.91,260.399z"/>
		<path d="M381.783,159.813l-20.189-34.932l-3.469-22.379l-0.093-0.695l-19.688-17.218l-22.711-39.352l-38.08-13.849l-16.558-14.503
			l-0.525-0.444l-25.397-0.525L191.323,0l-39.066,14.205l-21.404-0.432l-18.701,15.046L66.985,45.237L45.535,82.411L30.389,94.608
			l-0.566,0.42l-4.373,22.175l-24.598,42.61l7.619,43.252l-3.649,18.45l-0.134,0.7l10.539,19.15l8.594,48.74l33.852,28.422
			l9.184,16.688l0.321,0.596l20.627,8.01l37.367,31.342h43.538l18.713,7.24l0.63,0.232l22.005-7.484h47.409l32.381-27.173
			l20.937-7.146l12.821-21.183l35.195-29.543l7.123-40.367l11.642-19.209l0.362-0.607l-3.994-25.666L381.783,159.813z
			 M308.251,337.667l-120.099,40.905L69.87,332.75L8.734,221.584L33.326,97.142l98.841-79.515l126.842,2.616l95.473,83.521
			l19.441,125.365L308.251,337.667z"/>
		<path d="M227.084,144.878c10.696-1.045,28.001-1.244,28.001-17.306c-10.299,7.403-28.865,3.48-32.345-10.726
			c-2.698-13.598-26.017-21.655-31.417-11.443c-5.43-10.211-28.737-2.154-31.417,11.443c-3.503,14.206-22.069,18.141-32.363,10.726
			c0,16.074,17.323,16.26,28.001,17.306c25.409-1.127,33.42-12.822,35.779-18.176C193.676,132.056,201.698,143.751,227.084,144.878z
			"/>
	</g>
</g>
<g>
</g>
<g>
</g>
<g>
</g>
<g>
</g>
<g>
</g>
<g>
</g>
<g>
</g>
<g>
</g>
<g>
</g>
<g>
</g>
<g>
</g>
<g>
</g>
<g>
</g>
<g>
</g>
<g>
</g>
</svg>
